<?xml version="1.0" encoding="utf-8"?>
<!-- Generator: Adobe Illustrator 17.0.2, SVG Export Plug-In . SVG Version: 6.00 Build 0)  -->
<!DOCTYPE svg PUBLIC "-//W3C//DTD SVG 1.1//EN" "http://www.w3.org/Graphics/SVG/1.1/DTD/svg11.dtd">
<svg version="1.1" id="Layer_1" xmlns="http://www.w3.org/2000/svg" xmlns:xlink="http://www.w3.org/1999/xlink" x="0px" y="0px"
	 width="960px" height="110px" viewBox="0 0 960 110" enable-background="new 0 0 960 110" xml:space="preserve">
<g>
	<path d="M93.475,18.369c-2.954,5.004-6.427,9.914-10.419,14.726c-3.172,0.93-6.467,1.696-9.886,2.297
		c-5.36,6.317-12.183,15.191-20.469,26.622c-1.204,1.668-2.878,3.932-5.025,6.789c-2.147,2.857-3.897,5.161-5.25,6.912
		c-1.354,1.75-2.701,3.418-4.041,5.004c-1.778,2.133-3.296,3.815-4.553,5.045c-1.258,1.23-2.338,2.146-3.241,2.749
		c-1.915,1.203-3.719,1.805-5.415,1.805c-1.586,0-2.817-0.26-3.692-0.779c-0.93-0.492-1.914-1.422-2.953-2.79
		c-0.711-0.902-1.6-1.655-2.667-2.256c2.652-5.114,4.457-8.983,5.415-11.608c3.09,2.734,7.042,4.758,11.855,6.071l7.383-10.05
		c2.324-3.172,4.745-6.631,7.261-10.378c2.68-3.938,5.1-7.629,7.26-11.075l7.671-12.183c-5.579-1.094-10.911-1.914-15.998-2.461
		c-5.086-0.547-9.722-0.82-13.906-0.82c-7.083,0-14.631,0.984-22.643,2.954c4.758-6.836,8.627-12.88,11.608-18.131
		c1.832-0.191,3.767-0.334,5.805-0.431c2.037-0.096,4.19-0.144,6.46-0.144c6.016,0,12.237,0.533,18.664,1.6l8.737,1.477
		c1.421,0.246,3.364,0.438,5.825,0.574c2.406,0.137,4.621,0.205,6.645,0.205C78.912,20.092,85.435,19.518,93.475,18.369z"/>
	<path d="M80.266,43.596l9.229-7.834l11.034,0.82c3.555,0.301,6.071,1.189,7.548,2.666c1.531,1.532,2.297,3.2,2.297,5.004
		c0,0.794-0.109,1.819-0.328,3.077c-0.301,1.477-0.615,3.678-0.943,6.604c-3.747,1.942-6.591,3.076-8.532,3.404
		c-1.969,0.328-3.856,0.492-5.661,0.492c-0.684,0-1.532-0.068-2.543-0.205c2.68,3.337,5.292,5.004,7.835,5.004
		c3.008,0,5.715-1.134,8.122-3.404h0.328c-2.735,8.532-7.794,12.798-15.178,12.798c-3.829,0-6.604-0.533-8.327-1.6
		c-1.723-1.066-3.036-2.611-3.938-4.635c-0.93-1.969-1.395-5.702-1.395-11.198l0.205-7.015L80.266,43.596z M92.654,44.006
		l-1.066,10.009c2.379,0,4.936-0.082,7.671-0.247c0.054-1.805,0.082-2.666,0.082-2.584c0-2.324-0.615-4.074-1.846-5.25
		C96.236,44.731,94.623,44.088,92.654,44.006z"/>
	<path d="M126.618,35.639c0.164,0,2.516,0.164,7.056,0.492c4.867,0.301,9.612,0.451,14.234,0.451
		c-0.028,0.109-0.328,1.135-0.903,3.077c-0.958,3.172-1.45,5.524-1.477,7.055c-3.2-1.257-9.421-2.283-18.664-3.077
		c1.312,3.884,5.605,5.825,12.88,5.825c3.828,0,6.454,0.164,7.876,0.492c1.367,0.328,2.447,1.012,3.24,2.051
		c0.765,1.012,1.148,2.476,1.148,4.389c0,2.051-0.438,4.061-1.312,6.03c-0.93,1.969-2.01,3.555-3.241,4.758
		c-1.258,1.231-3.473,2.338-6.645,3.323c-3.145,0.984-6.454,1.477-9.927,1.477c-6.017,0-11.034-1.23-15.054-3.691
		c0.492-1.641,1.244-3.651,2.256-6.03c4.266,1.86,9.092,2.79,14.48,2.79c2.844,0,5.469-0.793,7.876-2.379
		c-1.668-1.175-3.487-1.764-5.456-1.764c-0.41,0-0.902,0.014-1.477,0.041c-1.368,0.055-2.147,0.082-2.338,0.082
		c-5.388,0-9.49-0.806-12.306-2.42c-2.817-1.586-4.225-4.348-4.225-8.286c0-3.118,0.847-5.729,2.543-7.835
		C118.852,40.411,121.997,38.127,126.618,35.639z"/>
	<path d="M160.829,35.352l-0.041-3.323c0.328-0.055,1.627-0.191,3.897-0.41c3.856-0.41,6.728-0.752,8.614-1.025
		c0.027,0.438,0.041,0.902,0.041,1.395c0,0.875-0.096,2.325-0.287,4.348c0.875,0.082,2.611,0.123,5.209,0.123
		c1.777,0,2.967-0.041,3.569-0.123c-0.738,4.43-1.217,7.042-1.436,7.834c-1.832,0.274-4.362,0.479-7.588,0.616
		c-0.192,4.047-0.287,6.809-0.287,8.286c0,2.379,0.56,4.28,1.682,5.702c1.093,1.395,2.995,2.489,5.702,3.281l-7.096,10.747
		c-8.942-2.461-13.414-7.082-13.414-13.864c0-1.121,0.191-3.282,0.574-6.481c0.383-3.309,0.601-5.538,0.656-6.686
		c-1.258,0.027-2.653,0.178-4.184,0.451l4.348-7.466v-0.82L160.829,35.352z"/>
	<path d="M183.554,47.411l1.107-5.127c5.497-0.902,11.8-3.036,18.91-6.399v7.219l-0.123,3.077c0,0.41,0.014,0.779,0.041,1.107
		c0.027,0.902,0.041,2.147,0.041,3.733c0,0.711,0.014,1.286,0.041,1.723l0.287,7.22c0.055,1.559,0.26,5.06,0.616,10.501
		c-5.634,0.984-10.529,1.723-14.686,2.215c0.383-3.445,0.575-8.573,0.575-15.382l-0.164-10.296
		c-1.149,0.465-2.379,0.697-3.692,0.697C185.523,47.698,184.538,47.603,183.554,47.411z M195.696,17.18
		c2.051,0,3.828,0.711,5.333,2.133c1.477,1.422,2.215,3.227,2.215,5.415c0,2.051-0.738,3.815-2.215,5.292
		c-1.504,1.477-3.282,2.215-5.333,2.215c-2.051,0-3.815-0.738-5.292-2.215c-1.477-1.449-2.215-3.213-2.215-5.292
		c0-2.078,0.738-3.855,2.215-5.333C191.853,17.918,193.617,17.18,195.696,17.18z"/>
	<path d="M221.826,36.992l3.938-1.189v5.374c0.765-0.465,2.133-1.258,4.102-2.379c0.657-0.355,1.299-0.738,1.928-1.148l3.487-2.092
		c2.543,0.355,4.484,0.793,5.825,1.312c1.285,0.52,2.352,1.299,3.199,2.338c0.821,1.012,1.381,2.038,1.682,3.077
		c0.273,0.93,0.41,2.475,0.41,4.635c0,2.571-0.246,5.606-0.738,9.106c-0.52,3.719-0.807,6.919-0.861,9.599l-7.589,4.84l-1.148,0.779
		c-2.188,1.504-3.979,2.529-5.374,3.077c1.585-7.575,2.379-13.509,2.379-17.803c0-5.168-1.135-9.708-3.405-13.619
		c-0.082,0.11-0.574,0.602-1.477,1.477l-0.738,0.82l-1.682,1.682l0.205,23.586c-4.458,0.137-9.093,0.793-13.906,1.969
		c0-1.422,0.013-2.365,0.041-2.83c0.054-1.695,0.082-2.708,0.082-3.036v-0.943c-0.082-1.148-0.123-1.955-0.123-2.42v-9.681
		c0-4.895-0.082-9.284-0.246-13.167c0.355-0.109,0.765-0.239,1.23-0.39c0.465-0.15,0.991-0.321,1.579-0.513
		c0.588-0.191,1.21-0.41,1.867-0.656L221.826,36.992z"/>
	<path d="M263.05,35.926c8.122,0,14.001,1.135,17.639,3.404c3.582,2.271,5.374,5.757,5.374,10.46c0,2.161-0.164,4.95-0.492,8.368
		l-0.985,11.568c-0.164,3.473-0.396,5.975-0.697,7.506c-0.273,1.449-1.081,3.295-2.42,5.538c-1.286,2.188-3.009,4.334-5.168,6.44
		c-2.271,2.16-3.815,3.446-4.635,3.856c-0.984,0.464-2.476,0.697-4.471,0.697c-6.263,0-11.021-1.518-14.275-4.553l-0.697-8.491
		l6.481-6.153c2.188,3.746,6.727,5.989,13.619,6.727l-0.205-10.583c-0.137-6.262-0.246-9.804-0.328-10.624
		c-1.86,2.571-4.567,5.347-8.122,8.327c-1.45,1.258-2.379,2.242-2.79,2.953c-2.16-0.246-4.813-1.08-7.958-2.502
		c0,0.027-0.219-0.916-0.656-2.831c-0.766-3.09-1.149-5.92-1.149-8.491c0-3.172,0.506-5.715,1.518-7.629
		c0.957-1.859,2.598-4.184,4.922-6.974C260.452,39.577,262.284,37.238,263.05,35.926z M264.035,44.335v18.212
		c1.066-0.628,2.749-2.762,5.045-6.399c2.324-3.692,3.623-5.989,3.897-6.891C269.64,46.577,266.66,44.937,264.035,44.335z"/>
	<path d="M415.808,70.423l-5.948,4.553c4.102-9.817,8.682-19.757,13.741-29.821c1.887-3.774,2.831-6.892,2.831-9.353
		c0-1.832-0.451-3.405-1.354-4.717c-0.903-1.313-2.954-1.969-6.153-1.969c-1.176,3.255-1.887,5.401-2.133,6.44
		c-0.301,1.34-0.656,3.542-1.066,6.604c-0.52,3.938-1.012,6.892-1.477,8.86c-0.492,1.997-1.518,4.896-3.076,8.696
		c-1.778,4.266-4.799,10.829-9.065,19.689l-19.074,11.28l-6.276-16.572l0.41-25.063c-2.543,2.543-7.439,8.56-14.685,18.048
		c-3.61,4.731-6.666,8.867-9.168,12.409c-2.502,3.541-4.424,6.487-5.764,8.84l-13.495,2.256c0.109-7.329,0.546-14.535,1.312-21.617
		c0.601-5.579,0.902-9.735,0.902-12.47c0-4.348-0.547-9.708-1.641-16.08c-2.106-1.504-4.656-2.919-7.65-4.246
		c-2.995-1.326-6.214-2.482-9.66-3.466c0.328-0.492,1.955-2.81,4.881-6.953c2.926-4.143,5.141-7.267,6.645-9.373
		c5.688,1.258,10.378,3.076,14.07,5.456c1.067,0.684,2.249,1.6,3.548,2.748c1.299,1.149,2.577,2.455,3.835,3.917
		c1.257,1.463,2.461,3.001,3.61,4.615l-5.415,21.782c-1.204,4.84-2.858,13.017-4.963,24.53l14.029-16.203l8.614-9.763
		c0.82-0.902,1.812-2.057,2.974-3.466c1.162-1.408,2.399-2.913,3.712-4.512c1.312-1.6,2.42-2.96,3.322-4.082
		c0.903-1.121,1.982-2.461,3.241-4.02l12.962-5.045l5.333,41.635c0.711-1.805,2.352-6.918,4.922-15.341
		c1.093-3.5,1.873-5.934,2.338-7.302c0.465-1.367,1.326-3.828,2.584-7.384c1.695-4.648,3.227-8.395,4.594-11.239
		c1.23-2.625,2.721-5.346,4.471-8.163c1.613-2.543,3.131-4.471,4.553-5.784c1.449-1.312,2.379-2.064,2.789-2.256
		c0.411-0.191,1.313-0.287,2.708-0.287c3.227,0,5.961,0.834,8.204,2.502c2.242,1.668,3.363,3.897,3.363,6.687
		c0,2.68-0.629,5.401-1.887,8.163c-1.258,2.817-3.897,7.439-7.917,13.865c-1.887,2.981-3.596,5.75-5.127,8.307
		c-1.532,2.557-2.516,4.219-2.953,4.984C418.939,63.286,417.421,66.513,415.808,70.423z"/>
	<path d="M438.943,47.411l1.107-5.127c5.497-0.902,11.8-3.036,18.91-6.399v7.219l-0.123,3.077c0,0.41,0.014,0.779,0.041,1.107
		c0.027,0.902,0.041,2.147,0.041,3.733c0,0.711,0.014,1.286,0.041,1.723l0.287,7.22c0.055,1.559,0.26,5.06,0.616,10.501
		c-5.634,0.984-10.529,1.723-14.686,2.215c0.383-3.445,0.575-8.573,0.575-15.382l-0.164-10.296
		c-1.149,0.465-2.379,0.697-3.692,0.697C440.913,47.698,439.928,47.603,438.943,47.411z M451.085,17.18
		c2.051,0,3.828,0.711,5.333,2.133c1.477,1.422,2.215,3.227,2.215,5.415c0,2.051-0.738,3.815-2.215,5.292
		c-1.504,1.477-3.282,2.215-5.333,2.215c-2.051,0-3.815-0.738-5.292-2.215c-1.477-1.449-2.215-3.213-2.215-5.292
		c0-2.078,0.738-3.855,2.215-5.333C447.243,17.918,449.007,17.18,451.085,17.18z"/>
	<path d="M502.564,70.464l-14.398,2.625c0.027-0.876,0.043-1.901,0.043-3.077c0-4.375-0.357-8.723-1.068-13.044
		c-0.93,1.75-2.816,4.211-5.66,7.384c-3.035,3.391-5.278,6.03-6.727,7.917c-2.789-0.848-5.101-1.682-6.932-2.502
		c-0.711-4.211-1.067-8.86-1.067-13.947c0-3.118,0.452-5.756,1.354-7.917c0.929-2.188,2.502-4.471,4.717-6.85
		c2.215-2.379,4.607-4.416,7.178-6.112c1.777,0.082,4.443,0.602,7.998,1.559c0.219-5.852,0.33-11.349,0.33-16.49
		c7.93-1.477,12.729-2.406,14.396-2.789c-0.984,11.021-1.477,22.971-1.477,35.851c0,3.173,0.117,6.263,0.35,9.271
		C501.832,65.351,502.154,68.058,502.564,70.464z M479.143,43.924l0.41,17.229c0.137-0.137,0.267-0.267,0.39-0.39
		s0.226-0.226,0.308-0.308c0.191-0.328,0.458-0.759,0.801-1.292c0.342-0.533,0.648-1.032,0.922-1.498l6.318-11.116
		C485.691,45.347,482.643,44.472,479.143,43.924z"/>
	<path d="M511.631,35.352l-0.041-3.323c0.328-0.055,1.626-0.191,3.896-0.41c3.855-0.41,6.728-0.752,8.614-1.025
		c0.027,0.438,0.041,0.902,0.041,1.395c0,0.875-0.096,2.325-0.287,4.348c0.875,0.082,2.611,0.123,5.209,0.123
		c1.777,0,2.968-0.041,3.569-0.123c-0.738,4.43-1.218,7.042-1.436,7.834c-1.833,0.274-4.362,0.479-7.589,0.616
		c-0.191,4.047-0.287,6.809-0.287,8.286c0,2.379,0.56,4.28,1.682,5.702c1.094,1.395,2.994,2.489,5.702,3.281l-7.097,10.747
		c-8.942-2.461-13.414-7.082-13.414-13.864c0-1.121,0.191-3.282,0.575-6.481c0.382-3.309,0.601-5.538,0.656-6.686
		c-1.259,0.027-2.653,0.178-4.185,0.451l4.349-7.466v-0.82L511.631,35.352z"/>
	<path d="M536.816,21.487l13.865-4.348l-0.41,15.587v10.091l6.604-6.85h0.493c5.578,1.723,9.256,3.542,11.034,5.456
		c1.777,1.942,2.666,5.278,2.666,10.009c0,1.668-0.261,4.567-0.779,8.696c-0.302,2.188-0.548,5.292-0.738,9.312
		c-3.993,3.309-8.45,6.454-13.373,9.435c1.203-9.735,1.9-15.984,2.093-18.746l-1.519-9.722c-0.137-0.601-0.93-2.995-2.379-7.179
		c-1.887,2.489-3.255,4.171-4.102,5.045v10.378c0,0.137-0.027,1.107-0.082,2.912c-0.082,1.668-0.123,3.022-0.123,4.061
		c0,0.848,0.067,2.461,0.205,4.84c-2.927,0.109-7.821,0.67-14.686,1.682c0.41-3.336,0.697-7.725,0.861-13.167
		C536.584,53.51,536.707,41.012,536.816,21.487z"/>
	<path d="M636.495,36.828l-2.216,3.774c2.052,0.629,3.719,1.956,5.005,3.979c1.312,2.051,1.969,4.581,1.969,7.588
		c0,2.899-0.561,5.593-1.682,8.081c-1.148,2.461-2.365,4.252-3.65,5.374c-1.313,1.176-3.569,2.557-6.769,4.143
		c-0.574,0.273-1.381,0.779-2.42,1.518c-0.794,0.601-1.477,1.053-2.052,1.354c-5.332-0.027-10.187-1.532-14.562-4.512
		c-4.376-2.898-6.563-6.563-6.563-10.994c0-7.219,4.99-14.138,14.973-20.756c4.566,0.41,8.436,0.615,11.608,0.615
		C632.488,36.992,634.607,36.938,636.495,36.828z M618.897,43.432c-1.45,2.435-2.174,4.95-2.174,7.548
		c0,7.083,3.623,11.403,10.87,12.962c0.683-2.734,1.025-5.415,1.025-8.04c0-4.211-0.999-7.233-2.994-9.065
		C623.655,45.032,621.413,43.897,618.897,43.432z"/>
	<path d="M650.605,37.361l-0.574-7.178c2.324-4.129,4.929-7.226,7.814-9.291c2.885-2.064,6.05-3.097,9.496-3.097
		c2.405,0,5.004,0.396,7.793,1.189c0.41,2.489,0.766,4.389,1.066,5.702l-2.297,7.917c-3.938-3.118-7.397-5.1-10.378-5.948
		c0,3.938-0.068,6.358-0.205,7.26c-0.109,0.602-0.232,1.532-0.369,2.79h5.948c2.27,0,4.553-0.055,6.85-0.164l-2.338,8.204
		c-0.41,0.055-0.889,0.096-1.436,0.123c-0.52,0.027-1.271,0.096-2.256,0.205c-1.587,0.219-3.692,0.355-6.317,0.41l0.123,8.778
		c0.164,8.778,0.396,15.574,0.697,20.387l-7.589,1.969c-3.473,0.875-5.578,1.477-6.316,1.805l-0.574-31.667l-5.538,0.533
		C646.667,43.022,648.801,39.713,650.605,37.361z"/>
	<path d="M761.605,16.277h6.562c4.621,3.309,6.933,8.177,6.933,14.603c0,2.106-0.369,4.17-1.107,6.194
		c-4.048-4.156-7.411-6.645-10.091-7.466c-2.735-0.82-5.073-1.23-7.015-1.23c-1.367,0-2.215,0.069-2.543,0.205
		c-0.302,0.164-0.507,0.752-0.615,1.764c-0.164,1.012-0.246,1.928-0.246,2.748c0,1.204,0.26,2.708,0.779,4.512
		c0.492,1.887,1.408,3.091,2.748,3.61c1.23,0.547,2.762,1.094,4.595,1.641c1.777,0.547,4.539,1.04,8.286,1.477
		c2.434,0.273,4.102,0.574,5.004,0.902c0.738,0.273,1.518,0.889,2.338,1.846c0.82,0.984,1.996,2.831,3.528,5.538
		c-4.13,15.588-16.641,27.428-37.533,35.523l-4.226,0.246c-4.293,0-8.683-1.518-13.167-4.553
		c-4.54-3.036-10.255-8.327-17.146-15.875l0.492-7.547c9.845,3.172,20.906,8.327,33.186,15.464c3.008,1.777,4.744,2.667,5.209,2.667
		c3.036,0,6.672-1.34,10.911-4.02c4.185-2.653,6.276-5.893,6.276-9.722c0-1.695-0.561-2.939-1.682-3.733
		c-1.094-0.711-3.31-1.339-6.646-1.887c-5.278-0.821-9.188-2.721-11.731-5.702c-2.543-2.953-3.814-6.057-3.814-9.312
		c0-3.91,1.94-9.202,5.824-15.875C750.543,21.651,755.507,17.645,761.605,16.277z"/>
	<path d="M873.467,16.236c5.523,1.586,8.955,2.516,10.296,2.789c1.039,3.528,1.559,7.015,1.559,10.46
		c0,4.239-0.779,8.232-2.338,11.978c-1.587,1.258-3.221,2.714-4.902,4.369c-1.682,1.655-3.575,3.692-5.681,6.112
		c-2.106,2.42-4.171,4.943-6.194,7.568c-6.591,8.505-12.416,17.119-17.475,25.842l-12.47,6.276l-1.148-19.033
		c-0.356-5.825-0.999-10.774-1.929-14.849c-0.902-3.883-2.078-7.205-3.527-9.968c-1.395-2.598-3.419-5.387-6.071-8.368
		c-9.38-4.922-19.662-7.383-30.847-7.383c-2.763,0-5.688,0.246-8.778,0.738c3.91-5.497,6.549-9.571,7.917-12.224
		c5.661-2.816,11.499-4.225,17.516-4.225c5.633,0,11.321,1.163,17.064,3.486c2.762,1.094,5.92,2.701,9.476,4.82
		c3.555,2.12,7.355,4.684,11.403,7.691c0.108,1.75,0.164,3.036,0.164,3.856c0,1.668-0.294,6.481-0.882,14.439
		c-0.589,7.958-1.266,16.449-2.03,25.473c9.625-13.399,18.254-22.875,25.883-28.427l-0.369-12.265l-8.122,1.066
		c0.574-1.312,1.716-3.479,3.426-6.502C867.115,26.936,869.802,22.362,873.467,16.236z"/>
	<path d="M936.35,59.594l1.601-8.45c5.578-2.324,9.529-3.869,11.854-4.635c-0.767,3.555-2.407,9.339-4.923,17.352
		c-0.793,2.571-1.579,4.978-2.358,7.219c-0.779,2.242-1.436,4.034-1.969,5.374s-1.005,2.365-1.415,3.077
		c-1.368,2.461-3.132,4.785-5.292,6.973c-2.16,2.188-4.417,3.883-6.769,5.086c-2.352,1.203-5.019,1.805-7.998,1.805h-1.847
		l3.118-8.942c3.883-0.93,7.835-2.079,11.854-3.446c0.82-3.363,1.859-8.519,3.117-15.464c-4.375,3.637-7.985,6.474-10.829,8.512
		c-2.845,2.037-5.237,3.507-7.179,4.41c-3.773,1.695-7.165,2.543-10.173,2.543c-3.281,0-6.562-0.943-9.845-2.83
		c-3.254-1.833-5.771-4.471-7.548-7.917c-1.75-3.391-2.625-7-2.625-10.829c0-2.105,0.191-4.246,0.574-6.42
		c0.383-2.174,0.978-4.334,1.784-6.481c0.807-2.146,1.798-4.246,2.975-6.296c3.609-6.235,8.327-11.786,14.151-16.654
		c5.88-4.895,11.54-7.342,16.982-7.342c6.262,0,12.948,3.268,20.059,9.804c-0.164,1.34-0.998,5.866-2.502,13.578
		c-11.842-7.712-21.453-12.333-28.837-13.865c-6.946,7.767-10.419,16.094-10.419,24.981c0,4.321,1.449,7.685,4.348,10.091
		c2.898,2.407,6.344,3.61,10.337,3.61C922.13,64.435,928.721,62.821,936.35,59.594z"/>
</g>
</svg>
